HIERARCHY
ROOT joint_Root
{
	OFFSET 0.0 0.0 0.0
	CHANNELS 6 Xposition Yposition Zposition Zrotation Xrotation Yrotation 
	JOINT Hips
	{
		OFFSET 4.5925 91.4895 -427.239
		CHANNELS 6 Xposition Yposition Zposition Zrotation Xrotation Yrotation 
		JOINT Spine
		{
			OFFSET 15.7357 0.0 0.0
			CHANNELS 6 Xposition Yposition Zposition Zrotation Xrotation Yrotation 
			JOINT Chest
			{
				OFFSET 8.98455 -0.406207 0.0
				CHANNELS 6 Xposition Yposition Zposition Zrotation Xrotation Yrotation 
				JOINT Neck
				{
					OFFSET 16.3773 0.0 0.0
					CHANNELS 6 Xposition Yposition Zposition Zrotation Xrotation Yrotation 
					JOINT Head
					{
						OFFSET 6.45672 0.0 0.0
						CHANNELS 6 Xposition Yposition Zposition Zrotation Xrotation Yrotation 
						End Site
						{
							OFFSET 0.0 0.0 0.0
						}
					}
				}
				JOINT Shoulder_L
				{
					OFFSET 12.9942 -0.242716 4.98039
					CHANNELS 6 Xposition Yposition Zposition Zrotation Xrotation Yrotation 
					JOINT UpperArm_L
					{
						OFFSET 5.34809 0.0 0.0
						CHANNELS 6 Xposition Yposition Zposition Zrotation Xrotation Yrotation 
						JOINT LowerArm_L
						{
							OFFSET 24.3286 1.87007e-05 0.0
							CHANNELS 6 Xposition Yposition Zposition Zrotation Xrotation Yrotation 
							JOINT Hand_L
							{
								OFFSET 22.2916 0.0 0.0
								CHANNELS 6 Xposition Yposition Zposition Zrotation Xrotation Yrotation 
								End Site
								{
									OFFSET 0.0 0.0 0.0
								}
							}
						}
					}
				}
				JOINT Shoulder_R
				{
					OFFSET 12.9945 -0.242716 -4.98039
					CHANNELS 6 Xposition Yposition Zposition Zrotation Xrotation Yrotation 
					JOINT UpperArm_R
					{
						OFFSET -5.34813 0.0 0.0
						CHANNELS 6 Xposition Yposition Zposition Zrotation Xrotation Yrotation 
						JOINT LowerArm_R
						{
							OFFSET -24.3289 0.000322201 0.0
							CHANNELS 6 Xposition Yposition Zposition Zrotation Xrotation Yrotation 
							JOINT Hand_R
							{
								OFFSET -22.2915 -0.000108084 0.0
								CHANNELS 6 Xposition Yposition Zposition Zrotation Xrotation Yrotation 
								End Site
								{
									OFFSET 0.0 0.0 0.0
								}
							}
						}
					}
				}
			}
		}
		JOINT UpperLeg_L
		{
			OFFSET -2.19248 -6.46944 0.0
			CHANNELS 6 Xposition Yposition Zposition Zrotation Xrotation Yrotation 
			JOINT LowerLeg_L
			{
				OFFSET 39.0811 0.0 -1.23785e-05
				CHANNELS 6 Xposition Yposition Zposition Zrotation Xrotation Yrotation 
				JOINT Foot_L
				{
					OFFSET 40.9854 0.0 -1.26872e-05
					CHANNELS 6 Xposition Yposition Zposition Zrotation Xrotation Yrotation 
					JOINT Toes_L
					{
						OFFSET 11.7543 0.0 0.0
						CHANNELS 6 Xposition Yposition Zposition Zrotation Xrotation Yrotation 
						End Site
						{
							OFFSET 0.0 0.0 0.0
						}
					}
				}
			}
		}
		JOINT UpperLeg_R
		{
			OFFSET -2.19251 6.46944 0.0
			CHANNELS 6 Xposition Yposition Zposition Zrotation Xrotation Yrotation 
			JOINT LowerLeg_R
			{
				OFFSET -39.0811 -0.00228153 -0.0401928
				CHANNELS 6 Xposition Yposition Zposition Zrotation Xrotation Yrotation 
				JOINT Foot_R
				{
					OFFSET -40.9854 0.0 0.0
					CHANNELS 6 Xposition Yposition Zposition Zrotation Xrotation Yrotation 
					JOINT Toes_R
					{
						OFFSET -11.7543 0.0 0.0
						CHANNELS 6 Xposition Yposition Zposition Zrotation Xrotation Yrotation 
						End Site
						{
							OFFSET 0.0 0.0 0.0
						}
					}
				}
			}
		}
	}
}
MOTION
Frames:	7
Frame Time:	0.0333333
0.000000 0.000000 0.000000 0.000000 0.000000 -0.000000 -2.704480 90.562400 -4.836420 88.711800 0.503921 12.485000 15.735700 0.000005 -0.000001 87.740200 75.626700 -87.930900 8.984550 -0.406207 -0.000000 20.959200 -1.127630 -0.174145 16.377300 -0.000001 -0.000001 5.902130 -3.310390 1.772260 6.456720 -0.000001 -0.000000 -11.791800 -2.937910 1.738750 12.994200 -0.242716 4.980390 -91.193700 6.631670 -79.772700 5.348090 -0.000007 -0.000001 -56.064700 35.024100 -30.576400 24.328600 0.000019 0.000005 10.221500 22.741100 -25.006700 22.291600 -0.000001 0.000005 10.640000 5.249860 1.436370 12.994500 -0.242716 -4.980390 88.991100 9.854640 -84.125100 -5.348130 -0.000001 -0.000004 -59.864600 30.329000 -27.634500 -24.328900 0.000322 -0.000009 6.739440 9.967140 -34.327200 -22.291500 -0.000108 -0.000004 18.705100 5.388670 -2.572870 -2.192480 -6.469440 -0.000000 -172.064000 -12.256500 -3.153180 39.081100 -0.000007 -0.000012 -0.173237 0.262977 33.375300 40.985400 -0.000006 -0.000013 -1.027210 6.141650 -67.192500 11.754300 -0.000000 0.000003 -0.000165 -0.001576 -16.637300 -2.192510 6.469440 -0.000001 174.817000 25.607300 179.804000 -39.081100 -0.002282 -0.040193 -0.192196 0.308906 32.328200 -40.985400 0.000008 0.000006 5.179050 13.618500 -69.261300 -11.754300 -0.000006 -0.000006 -0.002776 -0.038042 -18.120200
0.000000 0.000000 0.000000 0.000000 0.000000 -0.000000 -2.706850 90.559300 -4.828720 88.701800 0.496662 12.475800 15.735700 0.000005 -0.000001 87.756900 75.626100 -87.962800 8.984550 -0.406207 -0.000000 20.960600 -1.121260 -0.205926 16.377300 -0.000001 -0.000001 5.945080 -3.309200 1.758170 6.456720 -0.000001 -0.000000 -11.832200 -2.929330 1.686410 12.994200 -0.242716 4.980390 -91.186400 6.605060 -79.794000 5.348090 -0.000007 -0.000001 -56.113500 34.956000 -30.552200 24.328600 0.000019 0.000005 10.253500 22.792300 -25.030100 22.291600 -0.000001 0.000005 10.636200 5.249740 1.439690 12.994500 -0.242716 -4.980390 88.987200 9.838130 -84.093000 -5.348130 -0.000001 -0.000004 -59.862900 30.161600 -27.649200 -24.328900 0.000322 -0.000009 6.793770 9.813430 -34.956800 -22.291500 -0.000108 -0.000004 18.859800 5.389560 -2.601210 -2.192480 -6.469440 -0.000000 -172.047000 -12.265500 -3.170780 39.081100 -0.000007 -0.000012 -0.172851 0.262206 33.393900 40.985400 -0.000006 -0.000013 -1.028810 6.157850 -67.200900 11.754300 -0.000000 0.000003 -0.000158 -0.001521 -16.635300 -2.192510 6.469440 -0.000001 174.819000 25.611100 179.799000 -39.081100 -0.002282 -0.040193 -0.197570 0.317288 32.337100 -40.985400 0.000008 0.000006 5.179890 13.634400 -69.272000 -11.754300 -0.000006 -0.000006 -0.002763 -0.037889 -18.113900
0.000000 0.000000 0.000000 0.000000 0.000000 -0.000000 -2.704740 90.560000 -4.828640 88.713700 0.485242 12.435600 15.735700 0.000005 -0.000001 87.743300 75.635200 -87.972500 8.984550 -0.406207 -0.000000 20.942000 -1.129880 -0.251181 16.377300 -0.000001 -0.000001 5.990540 -3.300520 1.731230 6.456720 -0.000001 -0.000000 -11.875900 -2.932840 1.664610 12.994200 -0.242716 4.980390 -91.181700 6.568340 -79.778100 5.348090 -0.000007 -0.000001 -56.093800 34.995400 -30.587000 24.328600 0.000019 0.000005 10.228100 22.753300 -25.010000 22.291600 -0.000001 0.000005 10.661700 5.250080 1.430760 12.994500 -0.242716 -4.980390 88.985500 9.829310 -84.078000 -5.348130 -0.000001 -0.000004 -59.954400 29.817800 -27.600800 -24.328900 0.000322 -0.000009 7.128720 9.981190 -35.817100 -22.291500 -0.000108 -0.000004 19.084000 5.392990 -2.710780 -2.192480 -6.469440 -0.000000 -172.076000 -12.291200 -3.205060 39.081100 -0.000007 -0.000012 -0.166485 0.252576 33.391000 40.985400 -0.000006 -0.000013 -1.019400 6.153790 -67.204200 11.754300 -0.000000 0.000003 -0.000153 -0.001478 -16.633700 -2.192510 6.469440 -0.000001 174.843000 25.599400 179.747000 -39.081100 -0.002282 -0.040193 -0.190658 0.306308 32.342400 -40.985400 0.000008 0.000006 5.183260 13.618300 -69.274800 -11.754300 -0.000006 -0.000006 -0.002782 -0.038109 -18.122900
0.000000 0.000000 0.000000 0.000000 0.000000 -0.000000 -2.704340 90.561200 -4.832470 88.707200 0.479905 12.431700 15.735700 0.000005 -0.000001 87.737200 75.629700 -87.979000 8.984550 -0.406207 -0.000000 20.952600 -1.134720 -0.275562 16.377300 -0.000001 -0.000001 6.056030 -3.291030 1.704430 6.456720 -0.000001 -0.000000 -11.947100 -2.942290 1.607090 12.994200 -0.242716 4.980390 -91.181600 6.565370 -79.773800 5.348090 -0.000007 -0.000001 -56.045500 34.992900 -30.615300 24.328600 0.000019 0.000005 10.183200 22.628100 -25.026100 22.291600 -0.000001 0.000005 10.620900 5.248810 1.464250 12.994500 -0.242716 -4.980390 88.981900 9.821580 -84.052600 -5.348130 -0.000001 -0.000004 -60.014700 29.412800 -27.548000 -24.328900 0.000322 -0.000009 7.505040 10.095500 -36.931200 -22.291500 -0.000108 -0.000004 19.319100 5.394600 -2.762850 -2.192480 -6.469440 -0.000000 -172.066000 -12.298800 -3.205700 39.081100 -0.000007 -0.000012 -0.169115 0.256602 33.387400 40.985400 -0.000006 -0.000013 -1.023910 6.145340 -67.202100 11.754300 -0.000000 0.000003 -0.000154 -0.001483 -16.633900 -2.192510 6.469440 -0.000001 174.837000 25.605000 179.748000 -39.081100 -0.002282 -0.040193 -0.199003 0.319597 32.333400 -40.985400 0.000008 0.000006 5.182010 13.641300 -69.267200 -11.754300 -0.000006 -0.000006 -0.002768 -0.037944 -18.116200
0.000000 0.000000 0.000000 0.000000 0.000000 -0.000000 -2.709110 90.554600 -4.833420 88.700400 0.477450 12.403400 15.735700 0.000005 -0.000001 87.724900 75.633800 -87.985100 8.984550 -0.406207 -0.000000 20.944000 -1.142510 -0.311040 16.377300 -0.000001 -0.000001 6.137660 -3.291210 1.673160 6.456720 -0.000001 -0.000000 -12.004400 -2.936480 1.597900 12.994200 -0.242716 4.980390 -91.171400 6.527800 -79.804100 5.348090 -0.000007 -0.000001 -56.073800 34.950200 -30.581800 24.328600 0.000019 0.000005 10.210400 22.669200 -25.048300 22.291600 -0.000001 0.000005 10.671400 5.248560 1.470800 12.994500 -0.242716 -4.980390 88.974700 9.827580 -84.014200 -5.348130 -0.000001 -0.000004 -60.111100 28.923700 -27.463200 -24.328900 0.000322 -0.000009 7.800420 10.006200 -38.256600 -22.291500 -0.000108 -0.000004 19.827100 5.397840 -2.867300 -2.192480 -6.469440 -0.000000 -172.055000 -12.308100 -3.252330 39.081100 -0.000007 -0.000012 -0.172826 0.261889 33.422000 40.985400 -0.000006 -0.000013 -1.022640 6.166670 -67.217500 11.754300 -0.000000 0.000003 -0.000165 -0.001574 -16.637200 -2.192510 6.469440 -0.000001 174.880000 25.585000 179.693000 -39.081100 -0.002282 -0.040193 -0.193404 0.310376 32.364800 -40.985400 0.000008 0.000006 5.185150 13.604700 -69.281100 -11.754300 -0.000006 -0.000006 -0.002832 -0.038686 -18.146400
0.000000 0.000000 0.000000 0.000000 0.000000 -0.000000 -2.709200 90.560700 -4.834430 88.701900 0.494723 12.431500 15.735700 0.000005 -0.000001 87.689300 75.611700 -87.970100 8.984550 -0.406207 -0.000000 20.987400 -1.163990 -0.347887 16.377300 -0.000001 -0.000001 6.188450 -3.305100 1.651980 6.456720 -0.000001 -0.000000 -12.036100 -2.943720 1.569720 12.994200 -0.242716 4.980390 -91.171300 6.529110 -79.806700 5.348090 -0.000007 -0.000001 -56.051100 34.916800 -30.578300 24.328600 0.000019 0.000005 10.233300 22.691400 -25.078100 22.291600 -0.000001 0.000005 10.706400 5.249270 1.451950 12.994500 -0.242716 -4.980390 88.957300 9.843400 -83.923300 -5.348130 -0.000001 -0.000004 -60.180300 28.338000 -27.464600 -24.328900 0.000322 -0.000009 8.144280 9.895580 -39.789100 -22.291500 -0.000108 -0.000004 20.386900 5.401240 -2.977820 -2.192480 -6.469440 -0.000000 -172.056000 -12.291400 -3.215900 39.081100 -0.000007 -0.000012 -0.170967 0.259385 33.390200 40.985400 -0.000006 -0.000013 -1.024950 6.162780 -67.195700 11.754300 -0.000000 0.000003 -0.000154 -0.001487 -16.634000 -2.192510 6.469440 -0.000001 174.852000 25.601200 179.745000 -39.081100 -0.002282 -0.040193 -0.197680 0.317515 32.332700 -40.985400 0.000008 0.000006 5.182710 13.625000 -69.266200 -11.754300 -0.000006 -0.000006 -0.002822 -0.038567 -18.141500
0.000000 0.000000 0.000000 0.000000 0.000000 -0.000000 -2.710210 90.555600 -4.845630 88.692900 0.495087 12.385300 15.735700 0.000005 -0.000001 87.606600 75.620800 -87.906300 8.984550 -0.406207 -0.000000 20.967400 -1.205900 -0.378282 16.377300 -0.000001 -0.000001 6.289360 -3.305400 1.616400 6.456720 -0.000001 -0.000000 -12.052500 -2.922010 1.529980 12.994200 -0.242716 4.980390 -91.162800 6.480000 -79.804000 5.348090 -0.000007 -0.000001 -56.106500 34.856700 -30.561800 24.328600 0.000019 0.000005 10.205300 22.673700 -25.032900 22.291600 -0.000001 0.000005 10.679900 5.249350 1.449780 12.994500 -0.242716 -4.980390 88.951200 9.841010 -83.886100 -5.348130 -0.000001 -0.000004 -60.344400 27.570300 -27.412900 -24.328900 0.000322 -0.000009 8.671870 9.880240 -41.635900 -22.291500 -0.000108 -0.000004 20.708900 5.400200 -2.943830 -2.192480 -6.469440 -0.000000 -172.061000 -12.297000 -3.290120 39.081100 -0.000007 -0.000012 -0.168907 0.255917 33.425300 40.985400 -0.000006 -0.000013 -1.019350 6.166720 -67.204700 11.754300 -0.000000 0.000003 -0.000164 -0.001564 -16.636900 -2.192510 6.469440 -0.000001 174.891000 25.611900 179.672000 -39.081100 -0.002282 -0.040193 -0.196686 0.315637 32.357900 -40.985400 0.000008 0.000006 5.187170 13.608800 -69.271500 -11.754300 -0.000006 -0.000006 -0.002800 -0.038313 -18.131200
